<svg width="40" height="40" viewBox="0 0 40 40" fill="none" xmlns="http://www.w3.org/2000/svg"><rect fill="#EF88AA" width="40" height="40" rx="12"/><g transform="translate(4 4)"><circle cx="16" cy="16" r="14" fill="#fff"/><svg width="32" height="32" viewBox="0 0 32 32" xmlns="http://www.w3.org/2000/svg"><path d="M16 32c8.837 0 16-7.163 16-16S24.837 0 16 0 0 7.163 0 16s7.163 16 16 16z" fill="#EF88AA"/><path fill-rule="evenodd" clip-rule="evenodd" d="M6 12h3.048a3.216 3.216 0 013.218 3.218H6V12zm6.901 0h3.049a3.216 3.216 0 013.218 3.218H12.9V12zm-3.853 7.113H6v-3.218h6.266a3.216 3.216 0 01-3.218 3.218zm3.853 0h3.049a3.216 3.216 0 003.218-3.218H12.9v3.218zM21.171 12h-2.258l4.687 7.113h2.384L21.17 12zm1.881.063V12H21.99l.533.782.053-.036.931 1.366-.052.036.517.758.53-.758-.053-.036.953-1.366.052.037L26 12h-1.064v.063h-1.884zm-3.175 6.944v.106h-1.103l.576-.828.087.06.921-1.322-.087-.061.55-.79.525.792-.088.059.879 1.323.088-.059.548.826h-1.097v-.106h-1.8z" fill="#fff"/></svg></g></svg>