<svg width="40" height="40" viewBox="0 0 40 40" fill="none" xmlns="http://www.w3.org/2000/svg"><rect fill="#FA027C" width="40" height="40" rx="12"/><g transform="translate(4 4)"><circle cx="16" cy="16" r="14" fill="#fff"/><svg width="32" height="32" viewBox="0 0 32 32" xmlns="http://www.w3.org/2000/svg"><path fill-rule="evenodd" clip-rule="evenodd" d="M0 16C0 7.163 7.163 0 16 0s16 7.163 16 16-7.163 16-16 16S0 24.837 0 16z" fill="#FA027C"/><g clip-path="url(#clip0)"><path fill-rule="evenodd" clip-rule="evenodd" d="M10.52 15.276a6.044 6.044 0 01-.293-1.925c.013-.27.036-.629.103-.988.558-3.1 3.63-5.245 6.687-4.667 3.188.606 5.235 3.615 4.65 6.843-.436 2.413-2.446 4.352-4.861 4.666-.345.045-.693.071-1.04.097-.564.042-1.128.084-1.68.208-.127.027-.172-.027-.145-.15.027-.123.052-.245.077-.367.024-.121.05-.243.076-.366l.293-1.371c.259-1.208.517-2.414.768-3.623a1.108 1.108 0 00-.845-1.339c-.612-.127-1.187.255-1.322.897-.63 2.96-1.26 5.919-1.884 8.878l-.17.794c-.162.758-.324 1.515-.464 2.274-.113.624.287 1.156.903 1.275.567.11 1.125-.26 1.264-.856l.063-.27c.088-.383.177-.764.238-1.15.257-1.585 1.44-2.473 2.716-2.545l.153-.01c.62-.037 1.242-.074 1.853-.209 4.254-.938 6.975-5.049 6.215-9.374-.81-4.602-5.356-7.57-9.835-6.414-4.51 1.165-7.06 5.864-5.652 10.398.21.674.822 1.015 1.452.81.603-.196.895-.851.68-1.516zm5.787 8.668c-.764-.004-1.35.583-1.35 1.357s.567 1.366 1.314 1.37a1.342 1.342 0 001.372-1.37c0-.756-.585-1.352-1.336-1.357z" fill="#fff"/></g><defs><clipPath id="clip0"><path fill="#fff" transform="translate(5.333 5.333)" d="M0 0h21.333v21.333H0z"/></clipPath></defs></svg></g></svg>