<svg width="40" height="40" viewBox="0 0 40 40" fill="none" xmlns="http://www.w3.org/2000/svg"><rect fill="#3B91F7" width="40" height="40" rx="12"/><g transform="translate(4 4)"><circle cx="16" cy="16" r="14" fill="#fff"/><svg width="32" height="32" viewBox="0 0 32 32" xmlns="http://www.w3.org/2000/svg"><path fill-rule="evenodd" clip-rule="evenodd" d="M0 16C0 7.163 7.163 0 16 0s16 7.163 16 16-7.163 16-16 16S0 24.837 0 16z" fill="#3B91F7"/><path d="M15.549 13.461c.292-1.197.645-2.273 1.019-2.975.137-.336.696-1.139 1.308-1.67 1.02-.884 2.164-1.109 3.355-.38l-.105.161.105-.161c.608.371.852.753.745 1.113-.079.268-.38.483-.541.46a.995.995 0 01-.7-.185 1.295 1.295 0 01-.425-.552c-.167-.383-.386-.513-.654-.483-.194.022-.42.143-.491.224l-.185.2a2.988 2.988 0 00-.38.486c-.375.607-.72 1.72-1.199 4.026l3.174.452-.175 1.239-3.22-.46-.138.815-.036.204c-.018.106-.039.22-.063.343l3.252.464-.186 1.237-3.328-.475c-.384 1.592-.89 3.297-1.249 3.97-.138.337-.696 1.139-1.308 1.67-1.02.884-2.164 1.109-3.355.38-.608-.37-.851-.754-.745-1.114.08-.268.38-.481.541-.46a.998.998 0 01.7.185c.175.126.32.308.425.553.167.382.386.513.654.483.194-.022.42-.143.491-.225.713-.773 1.279-2.264 1.993-5.705l-3.173-.454.175-1.238 3.22.46.139-.815c.03-.183.063-.365.098-.547l-3.24-.462.186-1.237 3.316.473z" fill="#fff"/></svg></g></svg>