<svg width="40" height="40" viewBox="0 0 40 40" fill="none" xmlns="http://www.w3.org/2000/svg"><rect fill="#74D7B6" width="40" height="40" rx="12"/><g transform="translate(4 4)"><circle cx="16" cy="16" r="14" fill="#fff"/><svg width="32" height="32" viewBox="0 0 32 32" xmlns="http://www.w3.org/2000/svg"><path fill-rule="evenodd" clip-rule="evenodd" d="M0 16C0 7.163 7.163 0 16 0s16 7.163 16 16-7.163 16-16 16S0 24.837 0 16z" fill="#74D7B6"/><path d="M23.999 11.566V8.001h-7.727v3.52h1.203l-2.385 2.902h-.983V11.52h1.357V8h-1.835v1.32h-.992V8h-1.811v1.32h-.992V8H8v3.565h1.62v8.869H8V24h7.464v-3.52h-1.357v-2.903h.984l2.386 2.902h-1.204V24H24v-3.565h-1.206L19.157 16l3.637-4.433H24z" fill="#fff"/></svg></g></svg>