<svg width="40" height="40" viewBox="0 0 40 40" fill="none" xmlns="http://www.w3.org/2000/svg"><rect fill="#141414" width="40" height="40" rx="12"/><g transform="translate(4 4)"><circle cx="16" cy="16" r="14" fill="#fff"/><svg width="32" height="32" viewBox="0 0 32 32" xmlns="http://www.w3.org/2000/svg"><path d="M16 32c8.837 0 16-7.163 16-16S24.837 0 16 0 0 7.163 0 16s7.163 16 16 16z" fill="#141414"/><path d="M7.814 15.588c0 .231-.07.457-.2.65a1.195 1.195 0 01-1.82.178 1.166 1.166 0 01-.257-1.275c.09-.214.241-.397.436-.525a1.193 1.193 0 011.494.145c.222.22.347.517.347.827zm18.802 0c0 .231-.07.457-.2.65a1.196 1.196 0 01-1.821.178 1.167 1.167 0 01-.255-1.276c.09-.213.24-.396.436-.524a1.193 1.193 0 011.492.146c.221.22.345.516.346.826h.002zm-9.4 4.614c0 .231-.07.458-.2.65a1.197 1.197 0 01-1.82.178 1.165 1.165 0 01-.257-1.275c.09-.214.241-.397.436-.525a1.193 1.193 0 011.494.146c.221.219.346.516.346.826zm-4.734-2.278c0 .232-.069.458-.199.65s-.315.342-.531.43a1.197 1.197 0 01-1.29-.253 1.165 1.165 0 01-.256-1.274c.09-.214.241-.397.436-.525a1.193 1.193 0 011.494.145c.222.22.346.517.346.827zm9.402 0c0 .232-.069.458-.198.651a1.196 1.196 0 01-1.822.18 1.165 1.165 0 01-.256-1.276c.09-.214.241-.397.436-.525a1.193 1.193 0 011.493.146c.221.218.346.515.347.824zM7.43 19.128a.784.784 0 01-.494.73.807.807 0 01-.871-.172.787.787 0 01.566-1.349.808.808 0 01.565.232.79.79 0 01.234.56zm18.802 0a.783.783 0 01-.494.73.807.807 0 01-.871-.172.787.787 0 01.566-1.349c.212 0 .416.084.565.232.15.148.235.349.235.559zm-9.4 4.677a.784.784 0 01-.494.73.808.808 0 01-.871-.17.787.787 0 01-.174-.862.806.806 0 011.304-.256c.15.148.234.349.234.558zm-4.733-2.34a.784.784 0 01-.494.73.808.808 0 01-.87-.171.787.787 0 01-.174-.862.807.807 0 011.477 0 .78.78 0 01.061.303zm9.401 0a.783.783 0 01-.492.732.809.809 0 01-.872-.171.788.788 0 01-.173-.862.792.792 0 01.74-.487c.211 0 .413.084.563.231.15.148.233.348.234.557zm-14.453.444a.41.41 0 01-.258.382.423.423 0 01-.456-.09.411.411 0 01.296-.705.42.42 0 01.295.12.41.41 0 01.123.293zm18.802 0a.41.41 0 01-.258.382.423.423 0 01-.456-.09.41.41 0 01.296-.705.42.42 0 01.295.12.41.41 0 01.123.293zm-9.401 4.678a.41.41 0 01-.259.382.423.423 0 01-.455-.09.413.413 0 01-.09-.45.414.414 0 01.386-.255.42.42 0 01.295.12.41.41 0 01.123.293zm-4.733-2.339a.41.41 0 01-.258.382.422.422 0 01-.455-.09.411.411 0 01.295-.705.42.42 0 01.296.121.411.411 0 01.122.292zm9.401 0a.41.41 0 01-.258.382.421.421 0 01-.57-.301.408.408 0 01.178-.424.421.421 0 01.528.051.41.41 0 01.122.292zM17.598 6.58c0 .313-.094.619-.27.879-.175.26-.425.462-.717.582a1.616 1.616 0 01-1.743-.343 1.564 1.564 0 01-.346-1.723c.121-.289.327-.536.59-.71a1.612 1.612 0 012.018.198c.3.297.468.698.468 1.117zm0 4.675c0 .313-.094.619-.27.879-.175.26-.425.462-.717.582a1.616 1.616 0 01-1.743-.343 1.563 1.563 0 01-.346-1.723c.121-.288.326-.535.59-.709a1.612 1.612 0 012.018.197c.3.297.468.698.468 1.117zm0 4.615c0 .313-.094.619-.27.879-.175.26-.425.462-.717.582a1.617 1.617 0 01-1.743-.343 1.563 1.563 0 01-.346-1.723c.121-.289.326-.535.59-.709a1.611 1.611 0 012.365.711c.08.192.121.398.121.606v-.002zM27 11.256c0 .312-.094.618-.27.878-.175.26-.425.462-.717.582a1.615 1.615 0 01-1.743-.343 1.565 1.565 0 01-.347-1.722c.122-.289.327-.536.59-.71a1.613 1.613 0 012.019.197c.3.296.468.698.468 1.117zm-18.802 0c0 .312-.093.618-.268.878a1.616 1.616 0 01-2.46.242 1.564 1.564 0 01-.348-1.723c.12-.288.325-.535.588-.709a1.612 1.612 0 012.019.195c.3.296.468.698.469 1.117zm4.732-2.34c0 .313-.093.62-.268.88a1.615 1.615 0 01-2.46.243 1.563 1.563 0 01-.35-1.722c.122-.29.326-.537.589-.71a1.612 1.612 0 012.018.195c.3.296.469.698.469 1.117l.002-.002zm-.002 4.617c0 .313-.094.619-.27.879-.175.26-.425.462-.717.582a1.617 1.617 0 01-1.743-.343 1.563 1.563 0 01-.347-1.722c.122-.29.327-.536.59-.71a1.612 1.612 0 012.018.197c.3.296.469.698.469 1.117zm9.404-4.614c0 .313-.094.618-.27.878-.176.26-.425.463-.718.582a1.616 1.616 0 01-1.742-.342 1.563 1.563 0 01-.347-1.722c.121-.29.326-.536.59-.71a1.612 1.612 0 012.018.197c.3.296.469.698.469 1.117zm0 4.614c0 .313-.094.619-.27.879-.176.26-.425.462-.718.582a1.616 1.616 0 01-1.742-.343 1.563 1.563 0 01-.347-1.722c.121-.29.326-.536.59-.71a1.613 1.613 0 012.018.197c.3.296.469.698.469 1.117" fill="#fff"/></svg></g></svg>