<svg version="1.1" id="Layer_1" xmlns="http://www.w3.org/2000/svg" x="0" y="0" viewBox="0 0 800 203" xml:space="preserve"><style>.st1{fill:#fff}</style><path id="Path_13_" d="M774.9 0C788.7 0 800 10.1 800 22.2v158.6c0 12.2-11.4 22.2-25.1 22.2H25.2C11.4 203 0 192.9 0 180.8V22.2C0 10 11.4 0 25.2 0h749.7z" fill="#1a1a27"/><path id="path2997_3_" class="st1" d="M283.4 118.4l-9.5 6c-11.6-18.9-36.7-9.8-37.1 10-.4 19.7 30.2 29 36.8 6.8h-18.8v-11h31.1c2.5 47.6-58.1 41.5-60 7s39.6-46.3 57.5-18.8z"/><path id="path3792_3_" class="st1" d="M314.5 114.8c-11.2.1-23 7.9-23.8 23.2-1.2 23.3 25.4 35.2 39.1 19.8v5.9H341v-48h-11.2v5.4c-3.8-4.3-9.4-6.3-15.3-6.3zm1.5 10.3c18.2 0 19.9 29.5 0 29.5s-18.1-29.5 0-29.5z"/><path id="path3796_3_" class="st1" d="M348.4 103v60.7h11.5v-60.6l-11.5-.1z"/><path id="path3792-7_3_" class="st1" d="M389.2 114.8c-11.2.1-23 7.9-23.8 23.2-1.2 23.3 25.4 35.2 39.1 19.8v5.9h11.2v-48h-11.2v5.4c-3.8-4.3-9.5-6.3-15.3-6.3zm1.5 10.3c18.2 0 19.9 29.5 0 29.5s-18.2-29.5 0-29.5z"/><path id="path3819_3_" class="st1" d="M419 115.7l17.4 23.9-18 24.1h13.8l11.1-15.6 11.7 15.6h13.7l-18.2-24 17.2-24h-13.2l-11 15-10.9-15H419z"/><path id="path3821_3_" class="st1" d="M468.4 115.7l20 45.8-8.2 19.7h11.3l26.7-65.4h-11.8l-12.6 32.3-13.3-32.3-12.1-.1z"/><path class="st1" d="M565.7 164.8c-5.4 0-10-1-13.8-3.1s-7-4.6-9.7-7.7l10.2-8.1c1.5 2.6 3.4 4.7 5.7 6.1 2.3 1.4 4.8 2.1 7.5 2.1 1.5 0 2.8-.2 3.9-.7 1.1-.4 2.1-1 2.9-1.8.8-.7 1.4-1.6 1.8-2.6.4-1 .6-2 .6-3 0-1.3-.4-2.3-1.1-3.2-.7-.9-1.6-1.6-2.8-2.3-1.2-.6-2.5-1.2-4-1.7s-3.1-1-4.7-1.5c-2-.7-4.1-1.4-6.1-2.1-2-.8-3.9-1.8-5.5-3.1s-2.9-2.9-4-4.8c-1-1.9-1.5-4.3-1.5-7.1 0-2.4.5-4.7 1.5-6.8 1-2.1 2.4-3.9 4.2-5.5s3.9-2.8 6.3-3.7c2.4-.9 5.1-1.3 8-1.3 2.4 0 4.6.2 6.6.7 1.9.4 3.7 1 5.4 1.8 1.6.8 3.1 1.7 4.5 2.8 1.3 1.1 2.6 2.2 3.8 3.5l-9.2 7c-2.6-3.8-6.2-5.8-10.9-5.8-2.7 0-4.8.7-6.3 2-1.4 1.3-2.1 2.9-2.1 4.9 0 1.2.3 2.2 1 3s1.6 1.6 2.7 2.2c1.1.6 2.4 1.2 3.9 1.7s3 1 4.7 1.6c2 .7 4.1 1.4 6.1 2.3 2.1.9 3.9 2 5.6 3.3 1.7 1.3 3 3 4.1 5 1 2 1.6 4.4 1.6 7.3 0 2.4-.5 4.7-1.4 6.9-.9 2.3-2.3 4.2-4 6-1.8 1.7-3.9 3.1-6.5 4.2-2.7.9-5.7 1.5-9 1.5zm20.9-49.1h8.2v-7.3l11.2-7.7v15h9.8v10H606v18.1c0 2.1.1 3.8.3 5.1s.7 2.3 1.4 3 1.7 1.1 3 1.4c1.3.2 3 .3 5.2.3v10.5h-1.6c-3.7 0-6.9-.3-9.4-1s-4.5-1.8-6-3.3c-1.5-1.6-2.5-3.6-3.2-6.2-.6-2.6-.9-5.8-.9-9.6v-18.1h-8.2v-10.2zm56.3 49.2c-3.5 0-6.7-.6-9.8-1.9-3-1.3-5.7-3.1-8-5.4-2.3-2.3-4-4.9-5.3-8-1.3-3-1.9-6.3-1.9-9.8s.6-6.8 1.9-9.8c1.3-3 3.1-5.7 5.3-8 2.3-2.3 4.9-4 8-5.4 3-1.3 6.3-2 9.8-2s6.7.7 9.7 2 5.7 3.1 8 5.4 4.1 4.9 5.4 8c1.3 3 1.9 6.3 1.9 9.8s-.6 6.7-1.9 9.8c-1.3 3-3.1 5.7-5.4 8-2.3 2.3-4.9 4.1-8 5.4-3 1.3-6.2 1.9-9.7 1.9zm0-10.4c2 0 3.8-.4 5.5-1.2s3.2-1.8 4.5-3.1 2.3-2.9 3-4.7 1.1-3.7 1.1-5.6c0-2-.4-3.9-1.1-5.7-.7-1.8-1.7-3.3-3-4.7-1.3-1.3-2.7-2.4-4.5-3.1-1.7-.8-3.5-1.2-5.5-1.2s-3.8.4-5.6 1.2c-1.7.8-3.2 1.8-4.5 3.1-1.2 1.3-2.2 2.9-2.9 4.7s-1.1 3.7-1.1 5.7.4 3.9 1.1 5.6c.7 1.8 1.7 3.3 2.9 4.7 1.2 1.3 2.7 2.4 4.5 3.1 1.8.8 3.7 1.2 5.6 1.2zm29.9-38.8h11v7.2c2.2-4.8 6.3-7.2 12.4-7.2 1.8 0 3.3.2 4.7.6s2.7.9 3.8 1.5l-4.2 10.5c-.8-.5-1.7-1-2.8-1.4-1-.4-2.3-.5-3.9-.5-3.2 0-5.7.9-7.4 2.8-1.7 1.8-2.5 4.9-2.5 9v25.7h-11.1v-48.2zm57.8 49.2c-3.8 0-7.3-.6-10.4-1.9-3.1-1.3-5.8-3.1-8-5.3-2.2-2.3-4-4.9-5.2-8-1.2-3-1.9-6.3-1.9-9.8s.6-6.8 1.9-9.9c1.3-3.1 3.1-5.7 5.3-8 2.3-2.3 4.9-4 8-5.4 3-1.3 6.3-2 9.8-2 3.6 0 6.9.6 9.9 1.9 3 1.2 5.7 3 7.9 5.2s3.9 4.9 5.2 7.9c1.2 3 1.9 6.3 1.9 9.9v4.2h-39.2c.8 3.4 2.4 6.2 5 8.2 2.6 2.1 5.9 3.1 9.8 3.1 3.1 0 5.9-.8 8.2-2.3s4-3.6 5.2-6.2l9.1 5.3c-2.1 3.9-5 7-8.8 9.4-3.8 2.5-8.4 3.7-13.7 3.7zm-.4-40.4c-3.4 0-6.3.9-8.7 2.7-2.4 1.8-4.2 4.2-5.2 7.2h27.4c-.8-3.2-2.4-5.7-4.8-7.4-2.4-1.6-5.3-2.5-8.7-2.5zM239.6 37.4h7.1l13.4 37.7h-7.3l-2.3-6.7h-14.6l-2.3 6.7h-7.5l13.5-37.7zm-1.4 24.3h9.9l-5-14.3-4.9 14.3zm18.2-16.8h7.3l7.8 21.3 7.7-21.3h7.2L275 75.1h-7l-11.6-30.2zm44.1 30.9c-1.8 0-3.6-.4-5.4-1.1s-3.4-1.7-4.8-3.1c-1.4-1.3-2.6-3-3.4-4.9-.9-1.9-1.3-4.2-1.3-6.6 0-2.5.4-4.7 1.3-6.7.8-1.9 2-3.6 3.4-4.9 1.4-1.3 3-2.4 4.8-3.1 1.8-.7 3.7-1.1 5.6-1.1 2 0 3.8.4 5.5 1.1 1.7.8 3.1 1.8 4.2 3.1v-3.6h7v30.2h-7v-3.9c-1.1 1.4-2.5 2.5-4.2 3.3-1.8.8-3.7 1.3-5.7 1.3zm1.2-6.5c1.3 0 2.5-.2 3.6-.7s2.1-1.2 2.9-2c.8-.9 1.4-1.9 1.9-3s.7-2.4.7-3.7-.2-2.5-.7-3.6-1.1-2.1-1.9-3c-.8-.8-1.8-1.5-2.9-2s-2.3-.7-3.6-.7c-1.3 0-2.5.2-3.6.7s-2.1 1.1-2.9 2c-.8.8-1.5 1.8-1.9 2.9-.5 1.1-.7 2.4-.7 3.7s.2 2.5.7 3.7 1.1 2.2 1.9 3c.8.8 1.8 1.5 2.9 2s2.3.7 3.6.7zm18.8-31.8c0-1.3.4-2.4 1.2-3.2.8-.8 1.9-1.2 3.2-1.2 1.4 0 2.5.4 3.2 1.2.8.8 1.2 1.9 1.2 3.2s-.4 2.4-1.2 3.2c-.8.8-1.9 1.2-3.2 1.2-1.4 0-2.5-.4-3.3-1.2-.8-.9-1.1-1.9-1.1-3.2zm.8 7.4h7v30.2h-7V44.9zm11.4-8h7v38.2h-7V36.9zm24.9 38.9c-1.8 0-3.6-.4-5.4-1.1s-3.4-1.7-4.8-3.1c-1.4-1.3-2.6-3-3.4-4.9-.9-1.9-1.3-4.2-1.3-6.6 0-2.5.4-4.7 1.3-6.7.8-1.9 2-3.6 3.4-4.9 1.4-1.3 3-2.4 4.8-3.1 1.8-.7 3.7-1.1 5.6-1.1 2 0 3.8.4 5.5 1.1 1.7.8 3.1 1.8 4.2 3.1v-3.6h7v30.2h-7v-3.9c-1.1 1.4-2.5 2.5-4.2 3.3-1.8.8-3.7 1.3-5.7 1.3zm1.2-6.5c1.3 0 2.5-.2 3.6-.7s2.1-1.2 2.9-2c.8-.9 1.4-1.9 1.9-3s.7-2.4.7-3.7-.2-2.5-.7-3.6-1.1-2.1-1.9-3c-.8-.8-1.8-1.5-2.9-2s-2.3-.7-3.6-.7c-1.3 0-2.5.2-3.6.7s-2.1 1.1-2.9 2c-.8.8-1.5 1.8-1.9 2.9-.5 1.1-.7 2.4-.7 3.7s.2 2.5.7 3.7 1.1 2.2 1.9 3c.8.8 1.8 1.5 2.9 2s2.3.7 3.6.7zm36.5 6.5c-2.1 0-4-.4-5.7-1.2-1.7-.8-3.1-1.9-4.2-3.4v3.9h-6.9V36.9h7v11.8c1.1-1.3 2.5-2.4 4.2-3.2s3.6-1.2 5.6-1.2c1.9 0 3.7.4 5.5 1.1 1.8.7 3.4 1.7 4.8 3.1 1.4 1.3 2.5 3 3.3 4.9s1.3 4.2 1.3 6.7-.4 4.7-1.3 6.6-2 3.6-3.4 4.9-3 2.4-4.7 3.1c-1.9.7-3.7 1.1-5.5 1.1zm-1.2-6.5c1.3 0 2.5-.2 3.6-.7s2.1-1.1 2.9-2c.8-.8 1.5-1.8 1.9-3 .5-1.2.7-2.4.7-3.7s-.2-2.5-.7-3.7c-.5-1.1-1.1-2.1-1.9-2.9-.8-.8-1.8-1.5-2.9-2s-2.3-.7-3.6-.7c-1.3 0-2.5.2-3.6.7s-2 1.1-2.8 2c-.8.8-1.4 1.8-1.9 3-.4 1.1-.7 2.3-.7 3.6s.2 2.5.7 3.7c.4 1.1 1.1 2.1 1.9 3s1.8 1.5 2.8 2c1.1.5 2.3.7 3.6.7zM413 36.9h7v38.2h-7V36.9zm26.1 38.9c-2.4 0-4.6-.4-6.5-1.2-2-.8-3.6-1.9-5-3.3s-2.5-3.1-3.3-5-1.2-4-1.2-6.1c0-2.2.4-4.3 1.2-6.2.8-1.9 1.9-3.6 3.3-5s3.1-2.5 5-3.4c1.9-.8 4-1.2 6.2-1.2s4.3.4 6.2 1.2c1.9.8 3.6 1.9 4.9 3.3 1.4 1.4 2.5 3 3.2 4.9.8 1.9 1.2 4 1.2 6.2v2.6h-24.6c.5 2.1 1.5 3.9 3.2 5.2 1.6 1.3 3.7 2 6.2 2 2 0 3.7-.5 5.1-1.4 1.4-1 2.5-2.3 3.3-3.9l5.7 3.3c-1.3 2.4-3.1 4.4-5.5 5.9-2.4 1.3-5.3 2.1-8.6 2.1zm-.3-25.4c-2.1 0-3.9.6-5.5 1.7-1.5 1.1-2.6 2.6-3.2 4.5h17.2c-.5-2-1.5-3.6-3-4.6-1.5-1.1-3.3-1.6-5.5-1.6zm46 25.4c-2.2 0-4.2-.4-6.1-1.2s-3.6-1.9-5-3.4c-1.4-1.4-2.5-3.1-3.3-5s-1.2-4-1.2-6.1c0-2.2.4-4.3 1.2-6.2.8-1.9 1.9-3.6 3.3-5s3.1-2.5 5-3.4c1.9-.8 4-1.2 6.1-1.2 2.2 0 4.2.4 6.1 1.2s3.6 1.9 5 3.4c1.4 1.4 2.6 3.1 3.4 5s1.2 4 1.2 6.2-.4 4.2-1.2 6.1c-.8 1.9-1.9 3.6-3.4 5-1.4 1.4-3.1 2.6-5 3.4-1.9.7-3.9 1.2-6.1 1.2zm0-6.6c1.2 0 2.4-.2 3.5-.7s2-1.1 2.8-2c.8-.8 1.4-1.8 1.9-2.9.4-1.1.7-2.3.7-3.5 0-1.3-.2-2.5-.7-3.6-.4-1.1-1.1-2.1-1.9-2.9-.8-.8-1.7-1.5-2.8-2-1.1-.5-2.2-.7-3.5-.7-1.2 0-2.4.2-3.5.7s-2 1.1-2.8 2c-.8.8-1.4 1.8-1.8 2.9-.4 1.1-.7 2.3-.7 3.6 0 1.2.2 2.4.7 3.5.4 1.1 1.1 2.1 1.8 2.9.8.8 1.7 1.5 2.8 2 1.1.4 2.3.7 3.5.7zm18.8-24.3h6.9v3.7c1-1.3 2.3-2.4 3.8-3.2s3.3-1.2 5.2-1.2c3.8 0 6.7 1.1 8.8 3.4 2.1 2.3 3.2 5.4 3.2 9.5v18h-7.1V57.9c0-2.3-.6-4.2-1.7-5.6-1.1-1.4-2.8-2-5.1-2-2 0-3.7.7-5 2.1-1.4 1.4-2 3.4-2 6.1v16.6h-7V44.9z"/><linearGradient id="SVGID_1_" gradientUnits="userSpaceOnUse" x1="146.084" y1="-834.158" x2="75.049" y2="-711.123" gradientTransform="matrix(1 0 0 -1 0 -672)"><stop offset="0" stop-color="#ff624f"/><stop offset="1" stop-color="#f102de"/></linearGradient><path d="M111.1 29.8h-1c-38.9 0-70.4 31.5-70.4 70.4v.9c0 38.9 31.5 70.4 70.4 70.4h.9c38.9 0 70.4-31.5 70.4-70.4v-.9c.1-38.8-31.4-70.4-70.3-70.4z" fill="url(#SVGID_1_)"/><path class="st1" d="M131.9 82.4v-1.6c0-11.7-9.6-21.3-21.3-21.3-11.7 0-21.3 9.6-21.3 21.3v1.6H72.6l5.5 44.5c.9 7 6.9 12.3 13.9 12.3h37.2c7.1 0 13.1-5.3 13.9-12.3l5.5-44.5h-16.7zm-34.3-2c0-7.2 5.8-13 13-13s13 5.8 13 13c0 .7-.1 1.4-.2 2H97.8c-.1-.7-.2-1.4-.2-2z"/></svg>