<svg width="40" height="40" viewBox="0 0 40 40" fill="none" xmlns="http://www.w3.org/2000/svg"><rect fill="#1D1D3C" width="40" height="40" rx="12"/><g transform="translate(4 4)"><circle cx="16" cy="16" r="14" fill="#fff"/><svg width="32" height="32" viewBox="0 0 32 32" xmlns="http://www.w3.org/2000/svg"><path d="M16 32c8.837 0 16-7.163 16-16S24.837 0 16 0 0 7.163 0 16s7.163 16 16 16z" fill="#1D1D3C"/><path fill-rule="evenodd" clip-rule="evenodd" d="M30 16c0 7.732-6.268 14-14 14S2 23.732 2 16 8.268 2 16 2s14 6.268 14 14zm-.991 0c0 7.185-5.824 13.009-13.009 13.009-7.185 0-13.009-5.824-13.009-13.009C2.991 8.815 8.815 2.991 16 2.991c7.185 0 13.009 5.824 13.009 13.009z" fill="#fff"/><path d="M19.985 9.991H9.867v2.02H13.914v8.078h4.048V12.01H22.009V9.992h-2.024zM18.168 22.628H13.77v.558h4.398v-.558z" fill="#fff"/></svg></g></svg>