<svg width="204" height="35" viewBox="0 0 204 35" fill="none" xmlns="http://www.w3.org/2000/svg">
<path d="M58.125 26.25C56.2917 26.25 54.7167 25.8833 53.4 25.15C52.1 24.4 51.1 23.35 50.4 22C49.7 20.6333 49.35 19.025 49.35 17.175C49.35 15.325 49.7 13.725 50.4 12.375C51.1 11.025 52.1 9.98333 53.4 9.25C54.7167 8.5 56.2917 8.125 58.125 8.125C59.0417 8.125 59.9417 8.24167 60.825 8.475C61.7083 8.70833 62.4833 9.04167 63.15 9.475C63.5833 9.75833 63.8417 10.1 63.925 10.5C64.0083 10.8833 63.9583 11.2417 63.775 11.575C63.5917 11.8917 63.3167 12.1083 62.95 12.225C62.5833 12.325 62.175 12.225 61.725 11.925C61.2083 11.5917 60.65 11.35 60.05 11.2C59.45 11.05 58.8417 10.975 58.225 10.975C56.4417 10.975 55.0833 11.5167 54.15 12.6C53.2167 13.6667 52.75 15.1917 52.75 17.175C52.75 19.1583 53.2167 20.6917 54.15 21.775C55.0833 22.8583 56.4417 23.4 58.225 23.4C58.8583 23.4 59.4833 23.325 60.1 23.175C60.7167 23.0083 61.3 22.7583 61.85 22.425C62.3 22.1417 62.7 22.05 63.05 22.15C63.4 22.25 63.6583 22.4583 63.825 22.775C64.0083 23.075 64.0667 23.4083 64 23.775C63.9333 24.1417 63.7083 24.4667 63.325 24.75C62.6583 25.2333 61.8583 25.6083 60.925 25.875C60.0083 26.125 59.075 26.25 58.125 26.25ZM68.2172 26.2C67.1505 26.2 66.6172 25.6667 66.6172 24.6V15.15C66.6172 14.1 67.1255 13.575 68.1422 13.575C69.1589 13.575 69.6672 14.1 69.6672 15.15V15.925C70.2672 14.4917 71.5505 13.6917 73.5172 13.525C74.2339 13.4417 74.6339 13.85 74.7172 14.75C74.8005 15.6333 74.3672 16.125 73.4172 16.225L72.8672 16.275C70.8172 16.475 69.7922 17.525 69.7922 19.425V24.6C69.7922 25.6667 69.2672 26.2 68.2172 26.2ZM80.2641 30.7C79.6974 30.7 79.3057 30.4917 79.0891 30.075C78.8724 29.6583 78.8807 29.1833 79.1141 28.65L80.5391 25.5L76.2641 15.65C76.0307 15.1 76.0307 14.6167 76.2641 14.2C76.4974 13.7833 76.9557 13.575 77.6391 13.575C78.0224 13.575 78.3307 13.6667 78.5641 13.85C78.7974 14.0167 79.0057 14.3417 79.1891 14.825L82.1891 22.325L85.2641 14.8C85.4474 14.3333 85.6641 14.0167 85.9141 13.85C86.1641 13.6667 86.4974 13.575 86.9141 13.575C87.4474 13.575 87.8224 13.7833 88.0391 14.2C88.2557 14.6167 88.2474 15.0917 88.0141 15.625L81.9391 29.5C81.7224 29.9667 81.4891 30.2833 81.2391 30.45C80.9891 30.6167 80.6641 30.7 80.2641 30.7ZM91.8732 30.7C90.8399 30.7 90.3232 30.175 90.3232 29.125V15.15C90.3232 14.1 90.8316 13.575 91.8482 13.575C92.8816 13.575 93.3982 14.1 93.3982 15.15V15.675C93.7482 15.025 94.2732 14.5083 94.9732 14.125C95.6732 13.725 96.4732 13.525 97.3732 13.525C98.4399 13.525 99.3732 13.7833 100.173 14.3C100.99 14.8167 101.623 15.55 102.073 16.5C102.523 17.4333 102.748 18.5583 102.748 19.875C102.748 21.175 102.523 22.3083 102.073 23.275C101.623 24.225 100.998 24.9583 100.198 25.475C99.3982 25.9917 98.4566 26.25 97.3732 26.25C96.5066 26.25 95.7232 26.0667 95.0232 25.7C94.3399 25.3167 93.8149 24.8083 93.4482 24.175V29.125C93.4482 30.175 92.9232 30.7 91.8732 30.7ZM96.4982 23.875C97.4316 23.875 98.1816 23.5417 98.7482 22.875C99.3149 22.1917 99.5982 21.1917 99.5982 19.875C99.5982 18.5417 99.3149 17.55 98.7482 16.9C98.1816 16.2333 97.4316 15.9 96.4982 15.9C95.5649 15.9 94.8149 16.2333 94.2482 16.9C93.6816 17.55 93.3982 18.5417 93.3982 19.875C93.3982 21.1917 93.6816 22.1917 94.2482 22.875C94.8149 23.5417 95.5649 23.875 96.4982 23.875ZM110.791 26.25C107.558 26.25 105.941 24.65 105.941 21.45V16.125H104.641C103.808 16.125 103.391 15.7333 103.391 14.95C103.391 14.1667 103.808 13.775 104.641 13.775H105.941V11.5C105.941 10.45 106.466 9.925 107.516 9.925C108.55 9.925 109.066 10.45 109.066 11.5V13.775H111.716C112.55 13.775 112.966 14.1667 112.966 14.95C112.966 15.7333 112.55 16.125 111.716 16.125H109.066V21.275C109.066 22.075 109.241 22.675 109.591 23.075C109.941 23.475 110.508 23.675 111.291 23.675C111.575 23.675 111.825 23.65 112.041 23.6C112.258 23.55 112.45 23.5167 112.616 23.5C112.816 23.4833 112.983 23.55 113.116 23.7C113.25 23.8333 113.316 24.1167 113.316 24.55C113.316 24.8833 113.258 25.1833 113.141 25.45C113.041 25.7 112.85 25.875 112.566 25.975C112.35 26.0417 112.066 26.1 111.716 26.15C111.366 26.2167 111.058 26.25 110.791 26.25ZM120.239 26.25C118.972 26.25 117.872 25.9917 116.939 25.475C116.006 24.9583 115.281 24.225 114.764 23.275C114.247 22.3083 113.989 21.175 113.989 19.875C113.989 18.575 114.247 17.45 114.764 16.5C115.281 15.55 116.006 14.8167 116.939 14.3C117.872 13.7833 118.972 13.525 120.239 13.525C121.506 13.525 122.606 13.7833 123.539 14.3C124.472 14.8167 125.197 15.55 125.714 16.5C126.231 17.45 126.489 18.575 126.489 19.875C126.489 21.175 126.231 22.3083 125.714 23.275C125.197 24.225 124.472 24.9583 123.539 25.475C122.606 25.9917 121.506 26.25 120.239 26.25ZM120.239 23.875C121.172 23.875 121.922 23.5417 122.489 22.875C123.056 22.1917 123.339 21.1917 123.339 19.875C123.339 18.5417 123.056 17.55 122.489 16.9C121.922 16.2333 121.172 15.9 120.239 15.9C119.306 15.9 118.556 16.2333 117.989 16.9C117.422 17.55 117.139 18.5417 117.139 19.875C117.139 21.1917 117.422 22.1917 117.989 22.875C118.556 23.5417 119.306 23.875 120.239 23.875ZM135.568 26.2C134.718 26.2 134.135 25.75 133.818 24.85L128.593 10.075C128.41 9.54167 128.443 9.09167 128.693 8.725C128.96 8.35833 129.402 8.175 130.018 8.175C130.468 8.175 130.818 8.28333 131.068 8.5C131.318 8.7 131.518 9.025 131.668 9.475L135.668 21.375L139.868 9.5C140.185 8.61667 140.718 8.175 141.468 8.175C141.868 8.175 142.185 8.28333 142.418 8.5C142.652 8.71667 142.852 9.05833 143.018 9.525L147.143 21.55L151.268 9.475C151.418 9.04167 151.618 8.71667 151.868 8.5C152.118 8.28333 152.46 8.175 152.893 8.175C153.427 8.175 153.818 8.35833 154.068 8.725C154.318 9.09167 154.352 9.54167 154.168 10.075L148.893 24.875C148.727 25.325 148.51 25.6583 148.243 25.875C147.977 26.0917 147.618 26.2 147.168 26.2C146.718 26.2 146.36 26.0917 146.093 25.875C145.827 25.6583 145.61 25.3167 145.443 24.85L141.368 13.275L137.268 24.875C137.102 25.325 136.885 25.6583 136.618 25.875C136.368 26.0917 136.018 26.2 135.568 26.2ZM159.436 26.25C158.553 26.25 157.761 26.0833 157.061 25.75C156.378 25.4 155.836 24.9333 155.436 24.35C155.053 23.7667 154.861 23.1083 154.861 22.375C154.861 21.475 155.094 20.7667 155.561 20.25C156.028 19.7167 156.786 19.3333 157.836 19.1C158.886 18.8667 160.294 18.75 162.061 18.75H162.936V18.225C162.936 17.3917 162.753 16.7917 162.386 16.425C162.019 16.0583 161.403 15.875 160.536 15.875C160.053 15.875 159.528 15.9333 158.961 16.05C158.411 16.1667 157.828 16.3667 157.211 16.65C156.811 16.8333 156.478 16.8583 156.211 16.725C155.944 16.575 155.761 16.35 155.661 16.05C155.578 15.7333 155.594 15.4167 155.711 15.1C155.844 14.7833 156.103 14.55 156.486 14.4C157.253 14.0833 157.986 13.8583 158.686 13.725C159.403 13.5917 160.053 13.525 160.636 13.525C162.419 13.525 163.744 13.9417 164.611 14.775C165.478 15.5917 165.911 16.8667 165.911 18.6V24.6C165.911 25.6667 165.428 26.2 164.461 26.2C163.478 26.2 162.986 25.6667 162.986 24.6V24.05C162.703 24.7333 162.253 25.275 161.636 25.675C161.019 26.0583 160.286 26.25 159.436 26.25ZM160.086 24.1C160.903 24.1 161.578 23.8167 162.111 23.25C162.661 22.6833 162.936 21.9667 162.936 21.1V20.55H162.086C160.519 20.55 159.428 20.675 158.811 20.925C158.211 21.1583 157.911 21.5917 157.911 22.225C157.911 22.775 158.103 23.225 158.486 23.575C158.869 23.925 159.403 24.1 160.086 24.1ZM174.683 26.25C171.45 26.25 169.833 24.65 169.833 21.45V16.125H168.533C167.7 16.125 167.283 15.7333 167.283 14.95C167.283 14.1667 167.7 13.775 168.533 13.775H169.833V11.5C169.833 10.45 170.358 9.925 171.408 9.925C172.441 9.925 172.958 10.45 172.958 11.5V13.775H175.608C176.441 13.775 176.858 14.1667 176.858 14.95C176.858 15.7333 176.441 16.125 175.608 16.125H172.958V21.275C172.958 22.075 173.133 22.675 173.483 23.075C173.833 23.475 174.4 23.675 175.183 23.675C175.466 23.675 175.716 23.65 175.933 23.6C176.15 23.55 176.341 23.5167 176.508 23.5C176.708 23.4833 176.875 23.55 177.008 23.7C177.141 23.8333 177.208 24.1167 177.208 24.55C177.208 24.8833 177.15 25.1833 177.033 25.45C176.933 25.7 176.741 25.875 176.458 25.975C176.241 26.0417 175.958 26.1 175.608 26.15C175.258 26.2167 174.95 26.25 174.683 26.25ZM184.206 26.25C182.922 26.25 181.806 25.9917 180.856 25.475C179.906 24.9417 179.172 24.1917 178.656 23.225C178.139 22.2583 177.881 21.125 177.881 19.825C177.881 18.525 178.139 17.4083 178.656 16.475C179.172 15.525 179.906 14.8 180.856 14.3C181.806 13.7833 182.922 13.525 184.206 13.525C184.756 13.525 185.347 13.6 185.981 13.75C186.631 13.9 187.239 14.15 187.806 14.5C188.139 14.7 188.331 14.9583 188.381 15.275C188.447 15.5917 188.406 15.8833 188.256 16.15C188.122 16.4167 187.914 16.6083 187.631 16.725C187.364 16.8417 187.056 16.8 186.706 16.6C185.939 16.1667 185.197 15.95 184.481 15.95C183.397 15.95 182.556 16.2917 181.956 16.975C181.372 17.6417 181.081 18.6 181.081 19.85C181.081 21.0833 181.372 22.0583 181.956 22.775C182.556 23.475 183.397 23.825 184.481 23.825C185.197 23.825 185.939 23.6167 186.706 23.2C187.056 23 187.364 22.9583 187.631 23.075C187.897 23.1917 188.089 23.3917 188.206 23.675C188.322 23.9417 188.347 24.2333 188.281 24.55C188.214 24.85 188.022 25.1 187.706 25.3C187.156 25.6333 186.572 25.875 185.956 26.025C185.339 26.175 184.756 26.25 184.206 26.25ZM191.898 26.2C190.864 26.2 190.348 25.6667 190.348 24.6V9.75C190.348 8.7 190.864 8.175 191.898 8.175C192.948 8.175 193.473 8.7 193.473 9.75V15.55C193.889 14.8833 194.448 14.3833 195.148 14.05C195.848 13.7 196.623 13.525 197.473 13.525C200.356 13.525 201.798 15.2 201.798 18.55V24.6C201.798 25.6667 201.281 26.2 200.248 26.2C199.198 26.2 198.673 25.6667 198.673 24.6V18.7C198.673 17.75 198.489 17.0583 198.123 16.625C197.773 16.1917 197.223 15.975 196.473 15.975C195.556 15.975 194.823 16.2667 194.273 16.85C193.739 17.4167 193.473 18.175 193.473 19.125V24.6C193.473 25.6667 192.948 26.2 191.898 26.2Z" fill="white"/>
<path fill-rule="evenodd" clip-rule="evenodd" d="M18.9584 10.2083H16.0417C15.639 10.2083 15.3125 10.5348 15.3125 10.9375V24.0625C15.3125 24.4652 15.639 24.7916 16.0417 24.7916H18.9584C19.3611 24.7916 19.6875 24.4652 19.6875 24.0625V10.9375C19.6875 10.5348 19.3611 10.2083 18.9584 10.2083ZM18.2292 23.3333H16.7709V11.6666H18.2292V23.3333ZM21.875 13.8541H24.7917C25.1944 13.8541 25.5209 14.1806 25.5209 14.5833V24.0625C25.5209 24.4652 25.1944 24.7916 24.7917 24.7916H21.875C21.4723 24.7916 21.1459 24.4652 21.1459 24.0625V14.5833C21.1459 14.1806 21.4723 13.8541 21.875 13.8541ZM13.125 17.5H10.2084C9.80565 17.5 9.47919 17.8264 9.47919 18.2291V24.0625C9.47919 24.4652 9.80565 24.7916 10.2084 24.7916H13.125C13.5277 24.7916 13.8542 24.4652 13.8542 24.0625V18.2291C13.8542 17.8264 13.5277 17.5 13.125 17.5ZM22.6042 15.3125V23.3333H24.0625V15.3125H22.6042ZM12.3959 23.3333H10.9375V18.9583H12.3959V23.3333Z" fill="white"/>
<mask id="mask0_23_3402" style="mask-type:alpha" maskUnits="userSpaceOnUse" x="9" y="10" width="17" height="15">
<path fill-rule="evenodd" clip-rule="evenodd" d="M18.9584 10.2083H16.0417C15.639 10.2083 15.3125 10.5348 15.3125 10.9375V24.0625C15.3125 24.4652 15.639 24.7916 16.0417 24.7916H18.9584C19.3611 24.7916 19.6875 24.4652 19.6875 24.0625V10.9375C19.6875 10.5348 19.3611 10.2083 18.9584 10.2083ZM18.2292 23.3333H16.7709V11.6666H18.2292V23.3333ZM21.875 13.8541H24.7917C25.1944 13.8541 25.5209 14.1806 25.5209 14.5833V24.0625C25.5209 24.4652 25.1944 24.7916 24.7917 24.7916H21.875C21.4723 24.7916 21.1459 24.4652 21.1459 24.0625V14.5833C21.1459 14.1806 21.4723 13.8541 21.875 13.8541ZM13.125 17.5H10.2084C9.80565 17.5 9.47919 17.8264 9.47919 18.2291V24.0625C9.47919 24.4652 9.80565 24.7916 10.2084 24.7916H13.125C13.5277 24.7916 13.8542 24.4652 13.8542 24.0625V18.2291C13.8542 17.8264 13.5277 17.5 13.125 17.5ZM22.6042 15.3125V23.3333H24.0625V15.3125H22.6042ZM12.3959 23.3333H10.9375V18.9583H12.3959V23.3333Z" fill="white"/>
</mask>
<g mask="url(#mask0_23_3402)">
<rect x="8.75" y="8.75" width="17.5" height="17.5" fill="white"/>
</g>
<circle cx="17.5" cy="17.5" r="16" stroke="white" stroke-width="3"/>
</svg>
