<svg width="20" height="20" viewBox="0 0 20 20" fill="#a6b1c2" xmlns="http://www.w3.org/2000/svg">
<path d="M8.49121 -0.000946817C4.37469 -0.000946817 1.02481 3.34905 0.991476 7.44905C0.974852 9.44902 1.74142 11.3491 3.1581 12.7657C4.55802 14.1991 6.44131 14.9824 8.44124 14.999H8.49123C12.6078 14.999 15.9576 11.649 15.991 7.54902C16.0243 3.41569 12.6744 0.0323568 8.49123 -0.000976562L8.49121 -0.000946817ZM12.8577 6.33239L10.3744 7.88233C10.2911 7.93232 10.2411 8.04904 10.2911 8.14902L11.4077 11.3324C11.4911 11.5491 11.2244 11.7157 11.0577 11.5657L8.64124 9.44898C8.55789 9.38237 8.42455 9.38237 8.35793 9.44898L5.99135 11.549C5.82464 11.6989 5.55806 11.5323 5.6413 11.3156L6.70793 8.13229C6.7413 8.03231 6.70793 7.93233 6.60795 7.88234L4.12477 6.3324C3.94143 6.21568 4.02479 5.93237 4.24149 5.93237H7.09144C7.1748 5.93237 7.25815 5.88238 7.2914 5.79902L8.29142 3.28239C8.35804 3.09905 8.62472 3.09905 8.70808 3.28239L9.7081 5.79902C9.74147 5.88238 9.82482 5.93237 9.90806 5.93237H12.758C12.9577 5.91575 13.0411 6.21569 12.8578 6.3324L12.8577 6.33239Z" fill="black"/>
</svg>
