<svg width="40" height="40" viewBox="0 0 40 40" fill="none" xmlns="http://www.w3.org/2000/svg"><rect fill="#2E3567" width="40" height="40" rx="12"/><g transform="translate(4 4)"><circle cx="16" cy="16" r="14" fill="#fff"/><svg width="32" height="32" viewBox="0 0 40 40" xmlns="http://www.w3.org/2000/svg"><circle cx="20" cy="20" r="20" fill="#2E3567"/><path fill-rule="evenodd" clip-rule="evenodd" d="M23.257 14.713L20 9l-3.257 5.713v7.34c1.139-.828 2.618-1.329 4.234-1.329.802 0 1.57.124 2.28.349v2.44c-.624-.314-1.389-.509-2.28-.509-2.693 0-4.227 1.783-4.234 3.247v2.046h6.514V14.713zm2.28 4v9.584H31l-5.463-9.584zm-11.074 9.584v-9.584L9 28.297h5.463z" fill="#fff"/></svg></g></svg>