<svg width="40" height="40" viewBox="0 0 40 40" fill="none" xmlns="http://www.w3.org/2000/svg"><rect fill="#008797" width="40" height="40" rx="12"/><g transform="translate(4 4)"><circle cx="16" cy="16" r="14" fill="#fff"/><svg width="32" height="32" viewBox="0 0 32 32" xmlns="http://www.w3.org/2000/svg"><path fill-rule="evenodd" clip-rule="evenodd" d="M0 16C0 7.163 7.163 0 16 0s16 7.163 16 16-7.163 16-16 16S0 24.837 0 16z" fill="#008797"/><path fill-rule="evenodd" clip-rule="evenodd" d="M14.315 8c1.199.252 2.258.826 3.309 1.426.51.292.832.755 1.15 1.213l.018.026c.298.424.59.852.881 1.28.287.421.574.842.866 1.258.097.139.283.325.4.31.148-.024.318-.21.389-.368.469-1.012.96-2.014 1.65-2.895.172-.222.37-.422.589-.598.209-.166.39-.085.397.178.018.681.025 1.364-.007 2.046-.01.184-.136.401-.274.534-.905.866-1.575 1.901-2.246 2.939l-.102.157c-.3.465-.389.495-.778.103-.698-.697-1.572-.745-2.466-.752l-1.323-.006c-1.03-.003-2.06-.007-3.09-.037-1.102-.033-2.205-.14-3.235-.585a9.435 9.435 0 01-1.589-.861c-.738-.508-1.008-1.398-.77-2.255.065-.232.232-.282.428-.212l.352.126c.533.189 1.066.378 1.586.6.39.166.775.346 1.159.525.623.291 1.246.582 1.89.811 1.262.448 2.578.349 3.875.094.21-.05.409-.139.587-.26.272-.171.29-.325.042-.538-.435-.373-.88-.735-1.345-1.07a256.65 256.65 0 00-2.56-1.828l-1.057-.749c-.053-.04-.104-.08-.154-.122a5.561 5.561 0 00-.1-.08c-.194-.155-.253-.297.035-.41h1.493zM8.54 8c1.42.403 2.66 1.144 3.86 1.986.439.308.918.561 1.396.814.218.115.436.23.65.35.19.1.369.217.536.35.075.066.141.222.113.303-.029.08-.185.161-.282.154-.146-.009-.295-.012-.444-.016-.418-.01-.84-.02-1.22-.148a37.95 37.95 0 01-3.627-1.44c-.46-.208-.869-.607-1.202-1.002-.169-.2-.217-.516-.261-.809l-.024-.152c-.013-.082.047-.174.106-.266.027-.041.054-.083.074-.124h.325zm14.686.143L23.01 8h-.974c-.59.097-.949.504-1.268 1.03-.053-.067-.104-.135-.155-.203-.314-.414-.61-.806-1.172-.827h-1.103c-.19.12-.126.21.01.34.72.681 1.436 1.366 2.147 2.056.305.295.474.298.75-.013l.067-.086c.024-.032.047-.063.073-.091.55-.604 1.099-1.209 1.646-1.814.043-.05.084-.103.127-.16l.068-.089zM8.057 14.286l.214.096c.098.042.18.078.256.117 2.112 1.152 4.353 1.82 6.77 1.853.109 0 .217.002.325.003.671.007 1.34.013 2.005.085 1.362.15 2.345.914 3.036 2.08a50.525 50.525 0 00.5.824l.197-.351c.126-.22.238-.417.336-.62.185-.383.366-.767.547-1.15.252-.534.504-1.067.765-1.596.125-.227.28-.437.46-.623a.461.461 0 01.325-.152c.056.004.133.182.148.29.152 1.05-.044 2.032-.542 2.975-.428.809-.834 1.63-1.24 2.45-.203.407-.405.816-.61 1.222-.079.166-.172.324-.279.473-.122.164-.26.145-.352-.035-.083-.161-.15-.33-.217-.498l-.003-.007c-.597-1.499-1.676-2.328-3.29-2.564-1.757-.26-3.44-.772-5.029-1.615-.797-.423-1.638-.763-2.479-1.103a62.113 62.113 0 01-1.228-.507c-.08-.032-.16-.064-.24-.1-.271-.127-.411-.322-.38-.644.018-.186.014-.374.01-.585-.003-.1-.005-.205-.005-.318zm12.263 9.657l.17-.007a1.097 1.097 0 00-.046-.173c-.037-.07-.078-.14-.118-.209l-.027-.044c-.557-.934-1.38-1.579-2.336-2.042-.558-.269-1.13-.506-1.704-.744-.304-.125-.608-.251-.91-.382-1.17-.506-2.313-1.05-3.41-1.713-.812-.494-1.681-.895-2.549-1.295-.191-.088-.383-.176-.573-.265-.41-.192-.687-.05-.72.34-.036.406-.033.816-.03 1.226l.001.328c0 .226.134.316.359.32.172.003.344.03.509.081 2.083.657 4.11 1.456 6.005 2.55.487.281.96.59 1.431.9.342.224.683.447 1.03.66.897.552 1.89.511 2.918.469zm-5.65.05h-.895c-.199 0-.397.002-.596.004-1.152.009-2.304.018-3.427-.274-.38-.1-.735-.304-1.086-.508-.09-.051-.178-.103-.268-.152-.13-.072-.272-.234-.29-.37a8.514 8.514 0 01-.045-1.186c0-.138.117-.286.26-.155.415.384.927.487 1.44.59.148.03.297.06.443.096.29.073.583.142.875.21.589.139 1.178.277 1.756.452.454.138.884.39 1.298.638.152.089.277.22.404.354.059.062.118.124.18.182-.014.04-.031.08-.049.12zm7.507-1.456c-.263.472-.528.948-.834 1.408.12 0 .234.003.343.007.243.007.465.014.681-.019.233-.035.493-.126.666-.278.967-.857 1.138-2.076.823-3.335-.006-.022-.023-.042-.048-.07a1.11 1.11 0 01-.052-.063c-.66.7-1.117 1.52-1.579 2.35z" fill="#fff"/></svg></g></svg>