<svg width="40" height="40" viewBox="0 0 40 40" fill="none" xmlns="http://www.w3.org/2000/svg"><rect fill="#9F5DEC" width="40" height="40" rx="12"/><g transform="translate(4 4)"><circle cx="16" cy="16" r="14" fill="#fff"/><svg width="32" height="32" viewBox="0 0 40 40" xmlns="http://www.w3.org/2000/svg"><circle cx="20" cy="20" r="20" fill="#9F5DEC"/><path d="M22.742 17.608c.002-1.327.005-2.654.025-3.98.015-1.044.02-2.088.024-3.132.004-.832.007-1.664.017-2.496h.063c.163 1.447.355 2.89.709 4.313.392 1.58.964 3.097 2.015 4.442.3.383.299.385-.003.742l-.008.01c-.474.56-.655 1.217-.76 1.894a9.555 9.555 0 00-.105 1.521c.002.49.002.98.002 1.47 0 1 0 2 .021 2.999.006.25.008.499.01.748.004.62.01 1.24.068 1.86.034.353.127.698.222 1.041.244.89.533 1.764.958 2.615-.097.01-.148-.032-.197-.072a.873.873 0 00-.03-.024l-.06-.044c-1.256-.904-2.512-1.809-3.821-2.652-.195-.125-.226-.26-.095-.432a1.33 1.33 0 01.146-.177c.586-.55.755-1.221.753-1.954-.005-1.446-.01-2.892.016-4.336.026-1.452.028-2.904.03-4.356zM14.21 17.019c-.1.114-.054.2.043.29.367.347.587.765.74 1.215.186.554.258 1.125.287 1.7.046.886.032 1.77.013 2.655a117.31 117.31 0 00-.02 3.54c.013 1.301-.19 2.569-.655 3.805l-.004.011c-.18.478-.361.956-.614 1.463a.876.876 0 00.12-.044l.346-.25c1.213-.872 2.427-1.744 3.692-2.558.178-.115.18-.259.07-.407a4.664 4.664 0 00-.355-.426c-.369-.392-.515-.85-.524-1.352l-.012-.692c-.009-.426-.017-.85-.023-1.276a333.789 333.789 0 01-.021-3.594c-.003-1.22-.006-2.44-.023-3.662-.029-2.163-.038-4.326-.047-6.49-.004-.94-.008-1.88-.014-2.82v-.125h-.05c-.152 1.232-.308 2.461-.573 3.678-.414 1.911-1.033 3.753-2.377 5.339zM20.015 11.109a171.907 171.907 0 000 12.151c.125-3.965.129-8.209 0-12.151zM15.12 31.985a.395.395 0 00-.006-.015c1.531-1.047 3.06-2.096 4.59-3.15.209-.145.382-.16.597-.012l4.57 3.133a.192.192 0 01.032.04c-.065.012-.11-.016-.153-.043a.465.465 0 00-.047-.026 16.102 16.102 0 00-3.046-1.077 6.968 6.968 0 00-3.653.088c-.947.275-1.876.591-2.75 1.021-.028.014-.057.026-.085.037l-.045.019-.005-.015z" fill="#fff"/></svg></g></svg>