<svg width="40" height="40" viewBox="0 0 40 40" fill="none" xmlns="http://www.w3.org/2000/svg"><rect fill="#4ECDC4" width="40" height="40" rx="12"/><g transform="translate(4 4)"><circle cx="16" cy="16" r="14" fill="#fff"/><svg width="32" height="32" viewBox="0 0 32 32" xmlns="http://www.w3.org/2000/svg"><path d="M16 32c8.837 0 16-7.163 16-16S24.837 0 16 0 0 7.163 0 16s7.163 16 16 16z" fill="#4ECDC4"/><path d="M13.24 5.66c-.054 0-.108-.056-.161-.111-.054-.055-.054-.11-.054-.11v-.167c0-.055.054-.11.16-.11 0 0 .054-.055.108-.055.858-.222 2.466-.056 3.323.11 4.557.83 8.898 5.806 7.29 10.617-.321.94-.804 1.77-1.393 2.544a1.05 1.05 0 00-.108.387c0 .166.054.276.108.387l1.232 1.88a11.14 11.14 0 001.716-3.262c1.5-4.369-.268-8.737-4.074-11.613 1.447.83 2.734 2.046 3.699 3.484a11.181 11.181 0 011.822 4.81 11.96 11.96 0 01-.482 5.143c-.536 1.66-1.448 3.207-2.627 4.424-.59.553-1.233 1.106-1.876 1.548l-1.18-1.77-1.714-2.598c-.193-.267-.361-.49-.506-.681-.784-1.035-.862-1.138-.138-2.305.061-.125.282-.472.546-.884.434-.68.983-1.537 1.116-1.881a6.27 6.27 0 00.536-2.599c-.054-2.378-1.554-4.424-3.806-5.806-1.072-.664-2.305-1.106-3.538-1.382zM18.707 26.34c.053 0 .107.056.16.111.054.055.054.11-.053.11v.166c0 .024 0 .038-.004.05-.006.016-.019.03-.05.061 0 0-.053.055-.107.055-.857.222-2.465.056-3.323-.11-4.556-.83-8.898-5.806-7.29-10.617.322-.94.804-1.77 1.394-2.544a1.05 1.05 0 00.107-.387c0-.166-.054-.276-.107-.387L8.2 10.968c-.75.995-1.34 2.101-1.715 3.262-1.448 4.369.321 8.737 4.127 11.613-1.447-.83-2.734-2.046-3.699-3.484a11.181 11.181 0 01-1.822-4.81 11.962 11.962 0 01.482-5.143c.536-1.66 1.448-3.207 2.627-4.424.59-.553 1.233-1.106 1.876-1.548l1.126 1.77 1.715 2.598c.192.267.36.49.506.681.783 1.035.861 1.138.137 2.305-.06.126-.282.472-.546.884-.434.68-.982 1.537-1.116 1.881a6.27 6.27 0 00-.536 2.599c.054 2.378 1.555 4.424 3.806 5.806 1.072.664 2.305 1.106 3.538 1.382z" fill="#fff"/></svg></g></svg>