<svg width="40" height="40" viewBox="0 0 40 40" fill="none" xmlns="http://www.w3.org/2000/svg"><rect fill="#172852" width="40" height="40" rx="12"/><g transform="translate(4 4)"><circle cx="16" cy="16" r="14" fill="#fff"/><svg width="32" height="32" viewBox="0 0 40 40" xmlns="http://www.w3.org/2000/svg"><circle cx="20" cy="20" r="20" fill="#172852"/><path d="M26.705 17.19c.692 1.238 1.792 2.238 2.874 3.139.144.112.288.227.431.343.587.47 1.177.946 1.874 1.24.14-.792.138-1.594.074-2.392l-.755-.438c-1.388-.804-2.905-1.375-4.498-1.892zM31.704 18.217c-1.724-1-3.614-1.647-5.509-2.238-.942-.34-1.898-.647-2.855-.955-2.119-.68-4.239-1.363-6.214-2.397a22.252 22.252 0 00-.22-.128c-.622-.363-1.319-.768-1.48-1.511-.074-.719.686-1.12 1.23-1.398 1.614-.605 3.371-.788 5.086-.601.741.08 1.475.23 2.186.444 3.067.953 5.657 3.267 7.01 6.173.197.437.39.884.533 1.344.128.411.216.832.233 1.267zM9.673 16.581c.67-1.817 1.768-3.504 3.26-4.754.379 3.119 1.706 6.133 3.898 8.4 2.63 2.732 6.374 4.409 10.184 4.346 1.3.04 2.574-.212 3.843-.463l.625-.122c-1.452 5.246-7.201 8.728-12.528 7.89-3.216-.41-6.185-2.314-7.976-5.002-2.02-2.97-2.53-6.915-1.306-10.295z" fill="#fff"/></svg></g></svg>