<svg width="40" height="40" viewBox="0 0 40 40" fill="none" xmlns="http://www.w3.org/2000/svg"><rect fill="#232C45" width="40" height="40" rx="12"/><g transform="translate(4 4)"><circle cx="16" cy="16" r="14" fill="#fff"/><svg width="32" height="32" viewBox="0 0 32 32" xmlns="http://www.w3.org/2000/svg"><path d="M16 32c8.837 0 16-7.163 16-16S24.837 0 16 0 0 7.163 0 16s7.163 16 16 16z" fill="#232C45"/><path d="M18.75 9.778V6.556L16 6v3.222l-2.75-.666v3.222l-2.75-.667v10.333l2.75.667v3.222L16 26v-3.222l2.75.666v-3.222l2.75.667V10.556l-2.75-.778zm-2.2 11l-3.85-.89v-6.11l3.85.889v6.11z" fill="#fff"/></svg></g></svg>