<svg width="40" height="40" viewBox="0 0 40 40" fill="none" xmlns="http://www.w3.org/2000/svg"><rect fill="#000" width="40" height="40" rx="12"/><g transform="translate(4 4)"><circle cx="16" cy="16" r="14" fill="#fff"/><svg width="32" height="32" viewBox="0 0 32 32" xmlns="http://www.w3.org/2000/svg"><path fill-rule="evenodd" clip-rule="evenodd" d="M0 16C0 7.163 7.163 0 16 0s16 7.163 16 16-7.163 16-16 16S0 24.837 0 16z" fill="#000"/><path fill-rule="evenodd" clip-rule="evenodd" d="M15.316 5.513l.097-.007c.197-.017 1.312.006 1.557.032 2.188.223 4.092 1.02 5.77 2.42.292.242.926.866 1.161 1.142 1.027 1.198 1.747 2.52 2.165 3.977.607 2.12.53 4.421-.217 6.48a10.506 10.506 0 01-7.297 6.602 9.982 9.982 0 01-2.572.31 9.93 9.93 0 01-2.603-.319 10.498 10.498 0 01-7.684-8.098 9.06 9.06 0 01-.19-1.875c-.018-1.036.065-1.804.292-2.72a10.504 10.504 0 018.18-7.774c.321-.062.809-.128 1.125-.154l.216-.016zm3.44 1.236a9.7 9.7 0 00-1.845-.365 17.085 17.085 0 00-1.472-.032 9.636 9.636 0 00-4.722 1.56 9.618 9.618 0 00-3.392 3.836 9.59 9.59 0 00-.941 3.258c-.037.331-.051 1.26-.026 1.634a9.657 9.657 0 002.303 5.617c.237.275.84.874 1.109 1.098a9.642 9.642 0 004.684 2.15 9.61 9.61 0 007.745-2.157c.294-.247.922-.876 1.157-1.159 1.068-1.284 1.765-2.731 2.082-4.324a9.626 9.626 0 00-1.755-7.675 9.705 9.705 0 00-4.928-3.44zm-9.612 6.786c.19-.073.325-.11.545-.145.223-.036.773-.024.99.023.866.188 1.504.767 1.791 1.627.107.32.14.54.14.947 0 .408-.033.628-.14.948-.336 1.008-1.154 1.62-2.226 1.67-.743.034-1.386-.196-1.874-.669-.357-.346-.588-.783-.71-1.34-.034-.159-.038-.223-.038-.609s.004-.45.038-.61c.194-.894.72-1.546 1.484-1.842zm2.49 2.015c-.143-.654-.519-1.084-1.088-1.24-.238-.066-.6-.07-.84-.007-.454.115-.811.423-.995.858a2.194 2.194 0 00-.153 1.019c.08.792.472 1.305 1.136 1.486.123.034.182.039.423.037.333 0 .455-.027.72-.16.407-.199.68-.583.798-1.12a3.02 3.02 0 000-.872zm9.556-2.169c-.847.097-1.485.538-1.842 1.276-.391.806-.395 1.907-.009 2.692.115.237.232.408.403.587.4.42.893.64 1.5.669.336.015.668-.037.93-.149.235-.1.502-.311.606-.48.03-.051.03-.05.03.223v.276h.88V15.8h-2.335v.863l.716.003.714.005-.005.06a1.9 1.9 0 01-.122.389c-.132.26-.39.46-.721.56-.17.05-.574.064-.77.024a1.355 1.355 0 01-.997-.79c-.29-.618-.235-1.537.122-2.072a1.56 1.56 0 01.464-.433c.064-.034.186-.083.269-.108.142-.044.17-.048.457-.048.282 0 .314.004.457.048.418.127.702.4.773.74l.02.099h.953l-.015-.098c-.134-.882-.75-1.48-1.68-1.638a4.212 4.212 0 00-.798-.024zm-7.926 5.094v-4.992l.596.003.596.005.687 1.89c.375 1.041.688 1.892.693 1.892.005 0 .317-.853.694-1.895l.685-1.895h1.177v4.992h-.863l-.002-1.74c0-1.257-.005-1.728-.019-1.7-.01.021-.298.801-.638 1.734l-.62 1.697-.424.005-.425.004-.633-1.735-.632-1.734-.005 1.734-.004 1.735h-.863z" fill="#000"/><path fill-rule="evenodd" clip-rule="evenodd" d="M15.088 2.017l.13-.01c.261-.022 1.748.01 2.075.043 2.918.298 5.456 1.361 7.694 3.227A18.65 18.65 0 0126.535 6.8c1.37 1.597 2.328 3.36 2.886 5.302.81 2.827.708 5.896-.29 8.642a14.008 14.008 0 01-9.728 8.801 13.313 13.313 0 01-3.43.413c-1.27 0-2.292-.124-3.47-.424-5.191-1.322-9.205-5.55-10.245-10.799-.18-.904-.24-1.489-.255-2.5-.023-1.38.088-2.405.39-3.625A14.005 14.005 0 0113.3 2.245a15.852 15.852 0 011.5-.206l.288-.022zm4.586 1.649a12.934 12.934 0 00-2.46-.487 22.774 22.774 0 00-1.962-.043c-2.29.146-4.425.85-6.295 2.08a12.824 12.824 0 00-4.524 5.115c-.677 1.374-1.074 2.753-1.255 4.343-.05.442-.067 1.681-.034 2.18a12.875 12.875 0 003.071 7.488c.316.368 1.12 1.167 1.478 1.465 1.837 1.53 3.926 2.488 6.245 2.867a12.813 12.813 0 0010.327-2.877c.393-.329 1.23-1.168 1.543-1.545 1.424-1.713 2.354-3.642 2.776-5.765a12.835 12.835 0 00-2.34-10.234c-1.638-2.177-3.987-3.818-6.57-4.587zM6.858 12.714c.253-.098.433-.147.727-.195.298-.047 1.03-.031 1.32.032 1.155.25 2.006 1.022 2.389 2.168.142.427.185.72.185 1.264 0 .543-.043.837-.185 1.263-.449 1.345-1.539 2.162-2.97 2.227-.99.045-1.847-.262-2.497-.891-.476-.463-.785-1.045-.947-1.787-.046-.212-.05-.298-.05-.812 0-.515.004-.6.05-.813.259-1.193.96-2.062 1.978-2.457zM10.18 15.4c-.192-.873-.693-1.447-1.451-1.654a2.476 2.476 0 00-1.122-.01 1.94 1.94 0 00-1.326 1.145c-.17.392-.249.925-.203 1.358.106 1.056.63 1.74 1.514 1.981.164.045.243.052.564.05.444 0 .607-.037.96-.213.542-.266.905-.778 1.064-1.493.056-.264.056-.9 0-1.164zm12.74-2.893c-1.13.129-1.98.718-2.457 1.701-.52 1.074-.525 2.543-.01 3.59.153.316.308.544.536.783.533.56 1.191.853 2.001.891.447.02.89-.05 1.24-.198.313-.133.67-.415.807-.641.04-.068.04-.066.04.298v.367h1.174v-3.564h-3.114v1.15l.954.005.953.007-.007.079c-.011.099-.108.413-.163.518-.176.348-.518.614-.96.747-.226.068-.766.086-1.027.032-.607-.122-1.06-.48-1.33-1.054-.385-.823-.313-2.048.163-2.761.14-.21.42-.472.618-.578.086-.045.249-.11.36-.144.189-.06.227-.064.608-.064.377 0 .42.005.61.064.557.169.936.534 1.03.986l.028.133h1.27l-.02-.131c-.179-1.176-1-1.974-2.24-2.184a5.618 5.618 0 00-1.064-.032zM12.353 19.3V12.644l.794.004.795.007.916 2.52c.5 1.388.918 2.523.925 2.523.007 0 .422-1.138.925-2.527l.914-2.527h1.568V19.299H18.038l-.002-2.319c0-1.676-.007-2.304-.025-2.268-.014.03-.397 1.07-.85 2.313l-.827 2.263-.566.007-.566.004-.844-2.312-.844-2.313-.007 2.313-.004 2.313H12.352z" fill="#fff"/></svg></g></svg>