<svg width="40" height="40" viewBox="0 0 40 40" fill="none" xmlns="http://www.w3.org/2000/svg"><rect fill="#000" width="40" height="40" rx="12"/><g transform="translate(4 4)"><circle cx="16" cy="16" r="14" fill="#fff"/><svg width="32" height="32" viewBox="0 0 32 32" xmlns="http://www.w3.org/2000/svg"><path fill-rule="evenodd" clip-rule="evenodd" d="M0 16C0 7.163 7.163 0 16 0s16 7.163 16 16-7.163 16-16 16S0 24.837 0 16z" fill="#000"/><g clip-path="url(#clip0)"><path fill-rule="evenodd" clip-rule="evenodd" d="M24.345 16a8.345 8.345 0 11-16.69 0 8.345 8.345 0 0116.69 0zm2.322 0c0 5.891-4.776 10.667-10.667 10.667S5.333 21.89 5.333 16 10.11 5.333 16 5.333 26.667 10.11 26.667 16zm-9.586-3.498c-.007.588-.522 1.096-1.088 1.082-.632-.022-1.147-.537-1.132-1.14.014-.587.558-1.11 1.132-1.095.631.014 1.095.5 1.088 1.153zm2.62 4.514c.08 0 .145-.065.145-.145V15.42a.145.145 0 00-.145-.146h-7.402a.145.145 0 00-.145.146v1.45c0 .08.065.146.145.146h2.685c.08 0 .145.065.145.145v3.41c0 .08.065.145.145.145h1.452c.08 0 .145-.064.145-.145v-3.41c0-.08.065-.145.145-.145H19.7z" fill="#fff"/></g><defs><clipPath id="clip0"><path fill="#fff" transform="translate(5.333 5.333)" d="M0 0h21.333v21.333H0z"/></clipPath></defs></svg></g></svg>