<svg width="40" height="40" viewBox="0 0 40 40" fill="none" xmlns="http://www.w3.org/2000/svg"><rect fill="#5492F6" width="40" height="40" rx="12"/><g transform="translate(4 4)"><circle cx="16" cy="16" r="14" fill="#fff"/><svg width="32" height="32" viewBox="0 0 40 40" xmlns="http://www.w3.org/2000/svg"><circle cx="20" cy="20" r="20" fill="#5492F6"/><path d="M19.105 9.2c.077.034.16.035.24.035.035 0 .07 0 .103.003a9.63 9.63 0 014.346 1.425 14.306 14.306 0 00-3.937.257c-2.217.455-4.644 1.502-6.628 3.583-.208-.09-.4-.201-.543-.39l-.014-.019.098-.047.045-.022c.216-.105.447-.218.67-.347.614-.347 1.224-.751 1.747-1.29.283-.293.574-.653.711-1.132.068-.23.13-.545.002-.883a1.073 1.073 0 00-.547-.59 9.593 9.593 0 012.798-.558c.018.001.037.002.045-.022h.11c.021.029.05.026.077.023l.025-.001h.462l.024.001c.027.003.056.006.078-.024l.088-.002zM13.999 14.86l.001.001.007-.01-.008.01z" fill="#fff"/><path d="M14.11 14.75c-.039.056-.076.112-.112.168-.053.08-.105.16-.163.236a.74.74 0 01-.034.092c-.4.788-.373 1.577.017 2.358.333.671.848 1.192 1.431 1.647 1.016.794 2.156 1.36 3.345 1.842a.813.813 0 00.052.018c.044.015.09.03.125.062a6.14 6.14 0 00-1.29 1.084c-.74.843-.996 1.782-.595 2.865a5.806 5.806 0 001.474 2.217c.384.365.807.68 1.301.884.244.1.495.187.762.136.329-.065.652-.158.965-.277a.916.916 0 00.46.269c.405.09.785.007 1.144-.178a9.974 9.974 0 002.39-1.755c.661-.65 1.23-1.386 1.693-2.188l.01-.018c.029-.049.06-.1.02-.155-.04-.054-.096-.046-.153-.038l-.02.002a2.571 2.571 0 00-.346.078c-.091.024-.183.05-.276.066.182-.304.34-.621.475-.95h.003l.063-.005c.164-.015.33-.03.49-.087.183-.062.35-.134.428-.344a10.318 10.318 0 00.19-6.669 10.16 10.16 0 00-2.656-4.29l-.03-.028-.113-.11c-1.072-.274-3.003-.418-5.142.021-1.982.407-4.118 1.31-5.908 3.048zM8 18.675a.603.603 0 00.037-.237c0-.032 0-.063.003-.095.07-.885.257-1.758.554-2.595l.027-.067.02-.05.124.16c.064.081.125.16.19.238l.66.794c.276.33.551.66.825.992.62.752 1.15 1.57 1.676 2.388.472.736.933 1.478 1.307 2.27.408.86.715 1.752.844 2.698.041.308.037.618.033.928l-.003.21a16.56 16.56 0 01-.092 1.699c-.004.036-.01.072-.016.108-.007.044-.014.088-.018.132-.009.11-.07.13-.166.115-.289-.05-.548-.175-.798-.317a10.16 10.16 0 01-3.873-3.856 10.031 10.031 0 01-1.194-3.377 9.852 9.852 0 01-.117-1.105c.003-.022.005-.045-.023-.06v-.973zM14.629 10.468c-.498-.053-1 .057-1.43.314h-.002a9.522 9.522 0 00-2.103 1.692l-.002.001a9.697 9.697 0 00-1.28 1.698l.033-.008.008-.002c.78-.174 1.534-.448 2.28-.78a.626.626 0 01.123-.054.582.582 0 01.103-.053l.074-.037c.219-.107.421-.205.618-.319l.003-.001c.581-.329 1.11-.685 1.55-1.14.248-.255.421-.49.5-.764v-.004c.051-.173.05-.26.025-.327a.18.18 0 00-.072-.09.69.69 0 00-.196-.085l-.064-.009a.654.654 0 01-.105-.027.644.644 0 01-.063-.005z" fill="#fff"/><path d="M31.972 28.338c.025-4.092.051-10.218-.007-10.986-.055-.724-3.412 0-10.076 1.127-2.848.371-4.601.547-8.145.702a.527.527 0 00-.504.525v10.331c0 .29.233.518.522.496 2.332-.172 10.783-1.096 14.238-1.672 1.681-.28 2.555-.175 3.06.012.537.198.908.037.912-.535z" fill="#fff"/><path fill-rule="evenodd" clip-rule="evenodd" d="M32.488 17.313c.06.796.033 6.958.008 11.029-.003.39-.138.8-.53 1.013-.356.194-.763.13-1.087.01-.381-.142-1.15-.26-2.793.014-3.474.579-11.942 1.505-14.285 1.677a1.011 1.011 0 01-1.085-1.019V19.706a1.05 1.05 0 011.005-1.048c3.524-.155 5.262-.329 8.09-.698 1.073-.18 2.063-.352 2.968-.51 1.89-.327 3.413-.59 4.555-.748.84-.115 1.514-.18 1.99-.161.233.009.473.038.672.124.22.094.465.297.492.648zm-10.6 1.166c1.086-.183 2.083-.356 2.993-.514 4.678-.81 7.038-1.219 7.084-.613.058.768.032 6.894.007 10.986-.004.572-.375.733-.911.535-.506-.187-1.38-.292-3.061-.012-3.455.576-11.906 1.5-14.238 1.672a.487.487 0 01-.522-.496V19.706c0-.281.223-.512.504-.524 3.544-.156 5.297-.332 8.145-.703z" fill="#5492F6"/><path d="M31.508 23.385v.849c-.202-.08-.402-.228-.598-.228a11.99 11.99 0 00-1.812.102c-1.666.252-3.325.543-4.986.822-3.166.533-6.347.907-9.561.96h-.71v-5.565-.2a.555.555 0 01.517-.54c.182-.017.365-.03.548-.035a59.746 59.746 0 007.558-.702c2.073-.33 4.142-.7 6.218-1.018a19.87 19.87 0 012.254-.181c.384-.015.468.09.575.441v.7c-.175-.081-.348-.225-.525-.23a9.579 9.579 0 00-1.566.054c-1.198.166-2.377.378-3.566.572-1.09.178-2.18.357-3.268.544-.077.013-.197.094-.202.15-.022.261-.01.526-.01.814.11-.012.183-.018.254-.03 2.008-.333 4.012-.675 6.021-.993.696-.11 1.401-.169 2.105-.232a.85.85 0 01.757.3v.847a2.12 2.12 0 00-.467-.202c-.748-.126-1.477.01-2.205.122-1.452.225-2.898.487-4.341.731-.623.103-1.247.193-1.868.3-.088.016-.232.09-.238.15-.026.26-.01.524-.01.816.239-.028.448-.044.646-.077 2.129-.354 4.256-.72 6.388-1.059.51-.063 1.024-.094 1.538-.09a.6.6 0 01.563.307v.8a2.558 2.558 0 00-.575-.198c-.995-.103-1.968.117-2.943.268-1.023.159-2.043.35-3.065.523-.786.131-1.574.254-2.36.387-.068.012-.18.073-.182.115-.018.277-.01.556-.01.846.094-.009.142-.012.191-.02 1.98-.329 3.96-.67 5.943-.983.748-.118 1.516-.178 2.277-.244a.767.767 0 01.715.307zm-9.88-3.84l.084.331.358-.06.102-.336-.282-.167-.262.233zm.098 4.126l.341-.05.1-.348-.275-.163-.276.244.11.317zm-.857-2.127l.093.316.339-.035.12-.344-.29-.166-.262.229zm1.298.474l-.27-.172-.276.24.1.316.348-.047.098-.337zm-1.197 2.38l.335-.04.11-.337-.273-.176-.264.24.092.314zm-3.773-.272l.333-.015.105-.323-.26-.183-.267.225.09.296zm3.18-.814l-.247.226.084.307.328-.023.124-.353-.289-.157zm-.159-3.267l.328-.028.112-.34-.269-.17-.267.229.096.31zm-.314.358l-.271-.162-.274.215.106.308.328-.027.11-.334zm-2.79 4.689l.078.299.342-.015.095-.319-.26-.193-.255.228zm4.517-.467l.087.308.341-.042.11-.334-.276-.178-.262.246zm-1.086-3.345l.12-.34-.275-.15-.266.215.091.32.33-.045zm-.635.384l-.28-.162-.272.223.107.3.334-.027.11-.334zm0 1.268l-.271-.16-.262.212.085.31.333-.02.115-.342zm-1.521.15l-.257-.176-.271.22.092.3h.331l.105-.345zm.483-3.41l-.257.22.096.299h.332l.104-.34-.274-.178zm2.442.873l.097-.323-.26-.18-.277.225.096.33.344-.052zm-3.46.057l.108.282h.318l.107-.316-.258-.2-.276.234zm-.739.687l.085.29h.334l.1-.315-.26-.204-.259.23zm4.3 1.469l-.263-.175-.286.223.107.32.332-.045.11-.323zm-2.544-.551l-.26.216.097.313.335-.023.1-.338-.272-.168zm-1.233.313l-.27-.183-.26.214.09.312.326-.026.113-.317zm3.011-.31l-.259-.17-.282.228.109.313.334-.036.098-.335zm-4.206.046h.319l.118-.32-.256-.18-.27.2.089.3zm2.603 1.737l.095-.33-.265-.187-.273.216.1.3h.343zm-.17-3.055l-.27.217.097.313.34-.026.098-.328-.265-.176zm.588 3.628l.338-.031.09-.33-.253-.173-.278.22.103.314zm-2.844-.27l-.258.192.081.3h.334l.112-.324-.27-.167zm5.28-3.712l-.266.223.089.324.349-.05.101-.33-.274-.167zm-3.29 4.382l.087.307.34-.023.11-.334-.276-.169-.26.219zm1.765-.38l-.269.227.11.31.33-.037.11-.333-.28-.167zm-2.739-4.597l-.259-.182-.28.219.1.313.324-.027.115-.323zm.319 2.188l.322-.031.112-.316-.266-.193-.26.233.092.307zm-1.18-1.186l.096-.318-.259-.177-.26.196.094.3h.33zm-1.085 3.215l.326-.024.098-.315-.268-.169-.249.195.093.313zm-1.19.023l.099-.299-.258-.172-.245.178.085.3.319-.007zm1.347-4.34l-.25.203.095.311.315-.022.111-.3-.27-.193zm1.018 3.323l-.256-.194-.259.213.09.3h.33l.095-.32zm-1.012-2.059l-.248.202.078.3h.323l.108-.31-.26-.192zm2.096 3.53h.323l.113-.316-.261-.187-.262.233.087.27zM15.24 21.05l.118-.3-.256-.19-.247.201.072.3.313-.011zm.763 1.87l.105-.29-.247-.204-.263.194.088.314.317-.014zm-.748.661l.096-.307-.25-.182-.253.196.084.3.323-.007zm-.657-2.196l-.253-.172-.253.177.085.3h.314l.107-.305zm1.51 3.772l-.259-.203-.254.223.098.3.312-.02.103-.3zm-.852-2.844l.09-.3-.247-.197-.253.2.084.3.326-.003zm0 2.524l.1-.3-.243-.19-.258.203.081.3.32-.013zm-.913-4.884l-.244.173.083.3h.323l.1-.3-.262-.173zm.01 2.531l-.258.174.09.299h.306l.1-.3-.237-.173zm0 2.531l-.243.187.08.288h.318l.084-.3-.238-.175zM31.507 27.828a2.805 2.805 0 00-.599-.191c-.944-.084-1.87.098-2.797.245-2.418.383-4.83.808-7.253 1.154-2.27.322-4.561.486-6.855.491-.04 0-.08 0-.164-.013 0-.256-.01-.51.01-.762 0-.044.124-.11.193-.112.59-.023 1.18-.03 1.77-.048 2.117-.07 4.228-.27 6.321-.6 2.222-.343 4.437-.731 6.659-1.084.598-.096 1.218-.15 1.83-.2.33-.023.673 0 .891.32l-.006.8zM31.508 26.03c-.229-.228-.532-.252-.815-.235-.688.04-1.378.087-2.057.194-2.264.355-4.518.77-6.784 1.104-2.573.387-5.17.594-7.771.62-.073 0-.15-.01-.234-.016v-.853c.072 0 .15-.018.215-.02a59.328 59.328 0 008.932-.772c2.106-.337 4.21-.699 6.315-1.034.477-.068.957-.11 1.439-.127a.88.88 0 01.76.29v.849z" fill="#5492F6"/></svg></g></svg>