<svg width="40" height="40" viewBox="0 0 40 40" fill="none" xmlns="http://www.w3.org/2000/svg"><rect fill="#252C35" width="40" height="40" rx="12"/><g transform="translate(4 4)"><circle cx="16" cy="16" r="14" fill="#fff"/><svg width="32" height="32" viewBox="0 0 32 32" xmlns="http://www.w3.org/2000/svg"><path fill-rule="evenodd" clip-rule="evenodd" d="M0 16C0 7.163 7.163 0 16 0s16 7.163 16 16-7.163 16-16 16S0 24.837 0 16z" fill="#252C35"/><path fill-rule="evenodd" clip-rule="evenodd" d="M8.816 18.082c1.101 0 1.982-.88 1.982-1.981a1.988 1.988 0 00-2.026-2.004c-1.167.022-2.047.903-2.025 2.004 0 1.145.902 1.981 2.07 1.981zm7.222-7.353a2.006 2.006 0 001.982-2.004c0-1.1-.97-2.026-2.07-2.004-1.145.044-2.048.947-2.004 2.048.022 1.123.947 1.982 2.092 1.96zM21.3 15.88c-.022 1.145.815 2.025 1.982 2.047a1.976 1.976 0 002.07-1.893c.043-1.123-.837-2.07-1.938-2.092-1.167-.022-2.092.815-2.114 1.938zm-5.152 9.423c1.101 0 1.982-.88 2.004-1.96.022-1.078-.881-2.003-1.96-2.025-1.167-.022-2.114.88-2.114 2.004 0 1.078.947 1.96 2.07 1.981zm7.222-5.989c-.969-.022-1.806-.308-2.51-1.034-.815-.815-1.805-.925-2.532-.287-.77.66-.815 1.674-.044 2.598.837 1.013 1.475 2.07 1.145 3.457-.308 1.3-1.343 2.334-2.62 2.554-1.41.264-2.819-.308-3.545-1.497-.77-1.233-.727-2.488.044-3.721.11-.178.245-.34.379-.5.081-.096.163-.193.237-.293.705-.88.683-1.871-.11-2.532-.748-.638-1.74-.55-2.488.22-.924.991-2.07 1.366-3.39 1.057-1.387-.33-2.378-1.43-2.576-2.84-.177-1.32.55-2.73 1.717-3.368a3.466 3.466 0 013.897.396c.066.055.132.12.198.187.066.066.132.132.198.187.749.683 1.784.683 2.466.022.66-.638.705-1.63.088-2.4l-.178-.212c-.469-.558-.92-1.095-1.077-1.857-.33-1.564.397-3.127 1.828-3.787 1.475-.683 3.214-.287 4.161.968a3.35 3.35 0 01-.088 4.228c-.088.099-.176.203-.264.308-.088.104-.176.21-.264.308-.595.793-.529 1.762.154 2.4.704.639 1.74.639 2.444-.11.748-.77 1.607-1.233 2.708-1.233a3.36 3.36 0 013.369 3.39c.022 1.872-1.498 3.37-3.347 3.391zm-7.222 5.329c-.726 0-1.409-.66-1.409-1.365 0-.683.66-1.322 1.387-1.322a1.344 1.344 0 011.365 1.366c0 .77-.572 1.32-1.343 1.32zm5.813-8.72c0 .75.616 1.322 1.387 1.344a1.312 1.312 0 001.365-1.277c.022-.749-.595-1.41-1.343-1.41-.749 0-1.41.64-1.41 1.344zm-4.602-7.177c0 .749-.594 1.343-1.321 1.365-.705.022-1.431-.66-1.431-1.365 0-.727.638-1.343 1.409-1.343.749 0 1.343.594 1.343 1.343zm-7.222 7.376a1.319 1.319 0 00-1.343-1.387c-.748 0-1.409.638-1.409 1.343 0 .682.749 1.365 1.497 1.365.683 0 1.255-.595 1.255-1.321z" fill="#fff"/></svg></g></svg>