<svg xmlns="http://www.w3.org/2000/svg" viewBox="0 0 800 203"><g transform="translate(319 6508)"><path d="M456.6-6507.9c13.8 0 25.1 10.1 25.1 22.2v158.6c0 12.2-11.4 22.2-25.1 22.2h-749.7c-13.8 0-25.2-10.1-25.2-22.2v-158.6c0-12.2 11.4-22.2 25.2-22.2h749.7z" fill="#1a1a27"/><path d="M-58-6458.1c0 4.2-1.1 7.9-3.8 10.6-3.2 3.2-7 4.8-11.8 4.8s-8.6-1.6-11.8-4.8c-3.2-3.2-4.8-6.9-4.8-11.6 0-4.8 1.6-8.5 4.8-11.6 3.2-3.2 7-4.8 11.8-4.8 2.2 0 4.3.5 6.5 1.6s3.8 2.1 4.8 3.7l-2.7 2.6c-2.2-2.6-4.8-3.7-8.6-3.7-3.2 0-6.5 1.1-8.6 3.7-2.7 2.1-3.8 5.3-3.8 9s1.1 6.9 3.8 9c2.7 2.1 5.4 3.7 8.6 3.7 3.8 0 6.5-1.1 9.1-3.7 1.6-1.6 2.7-3.7 2.7-6.3h-11.8v-4.2H-58v2zm24.8-13.2h-14.5v10.1h13.4v3.7h-13.5v10.1h14.5v4.2h-18.8v-31.7h18.8l.1 3.6h0zm17.7 28h-4.3v-28h-9.1v-3.7h22.6v3.7h-9.1l-.1 28h0zm24.8 0v-31.7h4.3v31.7H9.3zm22.6 0h-4.3v-28h-9.1v-3.7h22.1v3.7h-9.1v28h.4zm51.1-4.2c-3.2 3.2-7 4.8-11.8 4.8s-8.6-1.6-11.8-4.8c-3.2-3.2-4.8-6.9-4.8-11.6 0-4.8 1.6-8.5 4.8-11.6 3.2-3.2 7-4.8 11.8-4.8s8.6 1.6 11.8 4.8c3.2 3.2 4.8 6.9 4.8 11.6s-1.6 8.4-4.8 11.6zm-20.5-2.6c2.2 2.1 5.4 3.7 8.6 3.7s6.5-1.1 8.6-3.7c2.2-2.1 3.8-5.3 3.8-9s-1.1-6.9-3.8-9c-2.2-2.1-5.4-3.7-8.6-3.7s-6.5 1.1-8.6 3.7c-2.2 2.1-3.8 5.3-3.8 9 .1 3.7 1.2 6.8 3.8 9zm31.2 6.8v-31.7h4.8l15.6 24.9v-24.9h4.3v31.7h-4.3l-16.7-25.9v25.9h-3.7z" fill="#fff" stroke="#fff" stroke-width=".2"/><path d="M53-6401.9c-12.9 0-23.1 9.5-23.1 22.7 0 12.7 10.2 22.7 23.1 22.7s23.1-9.5 23.1-22.7c.1-13.7-10.2-22.7-23.1-22.7zm0 36c-7 0-12.9-5.8-12.9-13.8 0-7.9 5.9-13.8 12.9-13.8s12.9 5.3 12.9 13.8c0 8-5.9 13.8-12.9 13.8zm-50-36c-12.9 0-23.1 9.5-23.1 22.7 0 12.7 10.2 22.7 23.1 22.7s23.1-9.5 23.1-22.7c0-13.7-10.2-22.7-23.1-22.7zm0 36c-7 0-12.9-5.8-12.9-13.8 0-7.9 5.9-13.8 12.9-13.8s12.9 5.3 12.9 13.8c0 8-5.9 13.8-12.9 13.8zm-59.7-29.1v9.5h23.1c-.5 5.3-2.7 9.5-5.4 12.2-3.2 3.2-8.6 6.9-17.8 6.9-14.5 0-25.3-11.1-25.3-25.4s11.3-25.4 25.3-25.4c7.5 0 13.5 3.2 17.8 6.9l7-6.9c-5.9-5.3-13.5-9.5-24.2-9.5-19.4 0-36 15.9-36 34.9s16.7 34.9 36 34.9c10.8 0 18.3-3.2 24.7-10.1 6.5-6.3 8.6-15.3 8.6-22.2 0-2.1 0-4.2-.5-5.8h-33.3zm244.2 7.4c-2.2-5.3-7.5-14.3-19.4-14.3-11.8 0-21.5 9-21.5 22.7 0 12.7 9.7 22.7 22.6 22.7 10.2 0 16.7-6.3 18.8-10.1l-7.5-5.3c-2.7 3.7-5.9 6.3-11.3 6.3s-8.6-2.1-11.3-6.9l30.7-12.7-1.1-2.4zm-31.2 7.4c0-8.5 7-13.2 11.8-13.2 3.8 0 7.5 2.1 8.6 4.8l-20.4 8.4zm-25.3 21.7h10.2v-66.1H131v66.1zm-16.1-38.6c-2.7-2.6-7-5.3-12.4-5.3-11.3 0-22.1 10.1-22.1 22.7s10.2 22.2 22.1 22.2c5.4 0 9.7-2.6 11.8-5.3h.5v3.2c0 8.5-4.8 13.2-12.4 13.2-5.9 0-10.2-4.2-11.3-7.9l-8.6 3.7c2.7 5.8 9.1 13.2 20.4 13.2 11.8 0 21.5-6.9 21.5-23.3v-40.2h-9.7v3.8h.2zm-11.8 31.2c-7 0-12.9-5.8-12.9-13.8 0-7.9 5.9-13.8 12.9-13.8s12.4 5.8 12.4 13.8c-.1 8-5.4 13.8-12.4 13.8zm131.2-58.7h-24.2v66.1h10.2v-24.9h14c11.3 0 22.1-7.9 22.1-20.6s-10.8-20.6-22.1-20.6zm.6 31.7h-14.5v-22.7h14.5c7.5 0 11.8 6.3 11.8 11.1-.5 5.8-4.8 11.6-11.8 11.6zm61.8-9.5c-7.5 0-15.1 3.2-17.8 10.1l9.1 3.7c2.2-3.7 5.4-4.8 9.1-4.8 5.4 0 10.2 3.2 10.8 8.5v.5c-1.6-1.1-5.9-2.6-10.2-2.6-9.7 0-19.4 5.3-19.4 14.8 0 9 8.1 14.8 16.7 14.8 7 0 10.2-3.2 12.9-6.3h.5v5.3h9.7v-25.4c-.9-11.7-10.1-18.6-21.4-18.6zm-1 36.5c-3.2 0-8.1-1.6-8.1-5.8 0-5.3 5.9-6.9 10.8-6.9 4.3 0 6.5 1.1 9.1 2.1-1.1 6.3-6.5 10.6-11.8 10.6zm56.5-34.9l-11.3 28.6h-.5l-11.8-28.6h-10.9l17.8 40.2-10.2 22.2h10.2l27.4-62.4h-10.7zm-90.4 42.3H272v-66.1h-10.2v66.1z" fill="#fff"/><linearGradient id="a" gradientUnits="userSpaceOnUse" x1="-3431.722" y1="-238.295" x2="-3432.934" y2="-235.975" gradientTransform="matrix(20.6594 0 0 38.9057 70670.344 2805.231)"><stop offset="0" stop-color="#00a0ff"/><stop offset=".007" stop-color="#00a1ff"/><stop offset=".26" stop-color="#00beff"/><stop offset=".512" stop-color="#00d2ff"/><stop offset=".76" stop-color="#00dfff"/><stop offset="1" stop-color="#00e3ff"/></linearGradient><path d="M-267.9-6471.8c-1.6 1.6-2.2 4.2-2.2 6.9v116.9c0 3.2 1.1 5.8 2.7 7.4l.5.5 66.7-65.6v-1.1l-67.7-65z" fill="url(#a)"/><linearGradient id="b" gradientUnits="userSpaceOnUse" x1="-3395.815" y1="-158.646" x2="-3403.885" y2="-158.646" gradientTransform="matrix(16.1306 0 0 13.1243 54634.73 -4324.13)"><stop offset="0" stop-color="#ffe000"/><stop offset=".409" stop-color="#ffbd00"/><stop offset=".775" stop-color="orange"/><stop offset="1" stop-color="#ff9c00"/></linearGradient><path d="M-178-6384l-22.6-21.2v-1.6l22.1-21.7h.5l26.4 15.3c7.5 4.2 7.5 11.1 0 15.3L-178-6384z" fill="url(#b)"/><linearGradient id="c" gradientUnits="userSpaceOnUse" x1="-3455.232" y1="-199.042" x2="-3459.758" y2="-195.547" gradientTransform="matrix(26.3807 0 0 20.0323 90954.984 -2403.632)"><stop offset="0" stop-color="#ff3a44"/><stop offset="1" stop-color="#c31162"/></linearGradient><path d="M-178-6384l-22.6-22.2-66.7 65.6c2.4 2.2 5.9 3.2 10.8 1.1l78.5-44.5z" fill="url(#c)"/><linearGradient id="d" gradientUnits="userSpaceOnUse" x1="-3459.273" y1="-202.324" x2="-3457.248" y2="-200.768" gradientTransform="matrix(26.5394 0 0 20.0447 91517.508 -2420.036)"><stop offset="0" stop-color="#32a071"/><stop offset=".069" stop-color="#2da771"/><stop offset=".476" stop-color="#15cf74"/><stop offset=".801" stop-color="#06e775"/><stop offset="1" stop-color="#00f076"/></linearGradient><path d="M-178-6428.5l-78.5-43.9c-4.8-2.6-8.6-2.1-11.3.5l67.2 65.6 22.6-22.2z" fill="url(#d)"/></g></svg>